<svg id="_0190_seo" xmlns="http://www.w3.org/2000/svg" viewBox="0 0 500 500"><defs><style>.cls-1_seo-61,.cls-2_seo-61,.cls-3_seo-61{fill:#fff;}.cls-4_seo-61{fill:#f4a28c;}.cls-5_seo-61,.cls-6_seo-61{fill:#a5a5a5;}.cls-2_seo-61{opacity:.18;}.cls-6_seo-61,.cls-7_seo-61{opacity:.39;}.cls-8_seo-61{letter-spacing:0em;}.cls-9_seo-61{fill:#e6e6e6;}.cls-10_seo-61{letter-spacing:0em;}.cls-7_seo-61,.cls-11_seo-61{fill:#000001;}.cls-3_seo-61{opacity:.22;}.cls-12_seo-61,.cls-13_seo-61{fill:#24285b;}.cls-11_seo-61{opacity:.06;}.cls-14_seo-61{fill:#ffd200;}.cls-13_seo-61{font-family:PantonDemo-Black, Panton;font-size:24.62px;font-weight:800;}.cls-15_seo-61{fill:#68e1fd;}</style></defs><g id="screen_seo-61"><rect class="cls-9_seo-61" x="67.02" y="42.59" width="413.72" height="300.62" transform="translate(-.48 .68) rotate(-.14)"></rect><rect class="cls-5_seo-61" x="66.63" y="43.1" width="413.87" height="58.68"></rect><circle class="cls-12_seo-61" cx="403.3" cy="73.12" r="7.5"></circle><circle class="cls-15_seo-61 targetColor" cx="425.61" cy="73.07" r="7.5" style="fill: rgb(104, 225, 253);"></circle><circle class="cls-14_seo-61" cx="446.63" cy="73.01" r="7.5"></circle><rect class="cls-1_seo-61" x="155.16" y="65.57" width="225.89" height="15"></rect><rect class="cls-7_seo-61" x="357.09" y="65.57" width="23.96" height="15"></rect><rect class="cls-1_seo-61" x="158.21" y="185.6" width="242.55" height="38.07"></rect><rect class="cls-15_seo-61 targetColor" x="346.88" y="185.6" width="53.89" height="38.07" style="fill: rgb(104, 225, 253);"></rect><rect class="cls-5_seo-61" x="218.28" y="133.64" width="113.37" height="21.11"></rect><path class="cls-11_seo-61" d="m258.55,166.89s52.87,29.88,20.94,89.33-46.2,12.27-61.21,87.13h-47.83l22.51-84.09,25.32,2.43,28.06-9.97,15.81-25.21v-33.36l-3.61-26.24Z"></path><rect class="cls-5_seo-61" x="231.01" y="289.44" width="92.04" height="13.6"></rect><rect class="cls-6_seo-61" x="247.77" y="267.13" width="58.73" height="13.6"></rect><path class="cls-1_seo-61" d="m377.04,208.75c-1.21,0-2.43-.3-3.55-.94-3.46-1.96-4.68-6.38-2.72-9.84.95-1.68,2.5-2.88,4.36-3.4,1.86-.51,3.8-.27,5.48.68,3.46,1.96,4.68,6.38,2.72,9.84-1.33,2.34-3.77,3.66-6.29,3.66Zm.02-12.58c-.48,0-.96.07-1.44.2-1.38.38-2.53,1.28-3.24,2.52-1.46,2.57-.55,5.85,2.02,7.3,2.56,1.45,5.85.55,7.31-2.02,1.46-2.57.55-5.85-2.02-7.31-.82-.46-1.72-.7-2.63-.7Z"></path><rect class="cls-1_seo-61" x="367.7" y="209.58" width="8.54" height="1.86" transform="translate(5.31 430.14) rotate(-60.43)"></rect><rect class="cls-3_seo-61" x="95.56" y="65.63" width="41.26" height="15"></rect></g><g id="hand_seo_seo-61"><polygon class="cls-4_seo-61" points="27.77 404.43 121.83 328.7 157.88 357.42 93.53 454.49 27.77 404.43"></polygon><polygon class="cls-15_seo-61 targetColor" points="18.87 398.33 97.59 457.93 154.36 376.09 97.68 336.04 18.87 398.33" style="fill: rgb(104, 225, 253);"></polygon><polygon class="cls-11_seo-61" points="129.03 358.19 65.13 433.31 97.59 457.93 154.36 376.09 129.03 358.19"></polygon><rect class="cls-12_seo-61" x="174.78" y="250.5" width="17.25" height="60.44" transform="translate(106.78 -45.73) rotate(19.95)"></rect><rect class="cls-2_seo-61" x="174.78" y="250.5" width="17.25" height="60.44" transform="translate(106.78 -45.73) rotate(19.95)"></rect><rect class="cls-12_seo-61" x="158.08" y="278.7" width="28.39" height="67.66" rx="5.05" ry="5.05" transform="translate(116.96 -40.03) rotate(19.95)"></rect><path class="cls-14_seo-61" d="m231.83,147.97c-32.12-11.66-67.61,4.93-79.26,37.05-11.66,32.12,4.93,67.61,37.05,79.26,32.12,11.66,67.61-4.93,79.26-37.05,11.66-32.12-4.93-67.61-37.05-79.26Zm-36.87,101.59c-23.99-8.71-36.38-35.21-27.67-59.2,8.71-23.99,35.21-36.38,59.2-27.67,23.99,8.71,36.38,35.21,27.67,59.2-8.71,23.99-35.21,36.38-59.2,27.67Z"></path><path class="cls-4_seo-61" d="m121.83,328.7s18.07-19.64,32.52-33.67c14.45-14.03,18.74,11.31,36.85,7.48,18.11-3.84,32.15,63.6-33.33,54.91l-36.04-28.71Z"></path><text class="cls-13_seo-61" transform="translate(187.91 212.03)"><tspan x="0" y="0">S</tspan><tspan class="cls-8_seo-61" x="16.02" y="0">E</tspan><tspan class="cls-10_seo-61" x="30.45" y="0">O</tspan></text></g></svg>